<svg xmlns="http://www.w3.org/2000/svg" xmlns:xlink="http://www.w3.org/1999/xlink" width="297" zoomAndPan="magnify" viewBox="0 0 222.75 73.499998" height="98" preserveAspectRatio="xMidYMid meet" version="1.0"><defs><g/><clipPath id="67ab586a5f"><path d="M 97.65625 1.425781 L 133.414062 1.425781 L 133.414062 33 L 97.65625 33 Z M 97.65625 1.425781 " clip-rule="nonzero"/></clipPath><clipPath id="a90a690068"><path d="M 101 6 L 131 6 L 131 63.253906 L 101 63.253906 Z M 101 6 " clip-rule="nonzero"/></clipPath></defs><g fill="#f68712" fill-opacity="0.4"><g transform="translate(12.499553, 50.976675)"><g><path d="M 21.6875 0 L 16.15625 -8 L 10.046875 -8 L 10.046875 0 L 3.40625 0 L 3.40625 -28.703125 L 15.828125 -28.703125 C 18.367188 -28.703125 20.570312 -28.273438 22.4375 -27.421875 C 24.3125 -26.578125 25.753906 -25.375 26.765625 -23.8125 C 27.785156 -22.257812 28.296875 -20.414062 28.296875 -18.28125 C 28.296875 -16.15625 27.78125 -14.316406 26.75 -12.765625 C 25.726562 -11.222656 24.273438 -10.039062 22.390625 -9.21875 L 28.828125 0 Z M 21.5625 -18.28125 C 21.5625 -19.894531 21.039062 -21.128906 20 -21.984375 C 18.96875 -22.847656 17.453125 -23.28125 15.453125 -23.28125 L 10.046875 -23.28125 L 10.046875 -13.28125 L 15.453125 -13.28125 C 17.453125 -13.28125 18.96875 -13.71875 20 -14.59375 C 21.039062 -15.46875 21.5625 -16.695312 21.5625 -18.28125 Z M 21.5625 -18.28125 "/></g></g></g><g fill="#f68712" fill-opacity="0.4"><g transform="translate(42.630579, 50.976675)"><g><path d="M 25.171875 -22.0625 L 25.171875 0 L 19.109375 0 L 19.109375 -2.625 C 18.253906 -1.664062 17.238281 -0.929688 16.0625 -0.421875 C 14.894531 0.078125 13.628906 0.328125 12.265625 0.328125 C 9.359375 0.328125 7.054688 -0.503906 5.359375 -2.171875 C 3.671875 -3.835938 2.828125 -6.3125 2.828125 -9.59375 L 2.828125 -22.0625 L 9.21875 -22.0625 L 9.21875 -10.53125 C 9.21875 -6.976562 10.707031 -5.203125 13.6875 -5.203125 C 15.21875 -5.203125 16.445312 -5.703125 17.375 -6.703125 C 18.3125 -7.703125 18.78125 -9.1875 18.78125 -11.15625 L 18.78125 -22.0625 Z M 25.171875 -22.0625 "/></g></g></g><g fill="#f68712" fill-opacity="0.4"><g transform="translate(70.793869, 50.976675)"><g><path d="M 15.984375 -22.390625 C 18.035156 -22.390625 19.898438 -21.914062 21.578125 -20.96875 C 23.265625 -20.03125 24.585938 -18.707031 25.546875 -17 C 26.503906 -15.289062 26.984375 -13.300781 26.984375 -11.03125 C 26.984375 -8.757812 26.503906 -6.769531 25.546875 -5.0625 C 24.585938 -3.351562 23.265625 -2.023438 21.578125 -1.078125 C 19.898438 -0.140625 18.035156 0.328125 15.984375 0.328125 C 13.171875 0.328125 10.957031 -0.5625 9.34375 -2.34375 L 9.34375 7.953125 L 2.953125 7.953125 L 2.953125 -22.0625 L 9.0625 -22.0625 L 9.0625 -19.515625 C 10.644531 -21.429688 12.953125 -22.390625 15.984375 -22.390625 Z M 14.890625 -4.921875 C 16.523438 -4.921875 17.867188 -5.472656 18.921875 -6.578125 C 19.972656 -7.679688 20.5 -9.164062 20.5 -11.03125 C 20.5 -12.882812 19.972656 -14.363281 18.921875 -15.46875 C 17.867188 -16.582031 16.523438 -17.140625 14.890625 -17.140625 C 13.242188 -17.140625 11.894531 -16.582031 10.84375 -15.46875 C 9.789062 -14.363281 9.265625 -12.882812 9.265625 -11.03125 C 9.265625 -9.164062 9.789062 -7.679688 10.84375 -6.578125 C 11.894531 -5.472656 13.242188 -4.921875 14.890625 -4.921875 Z M 14.890625 -4.921875 "/></g></g></g><g fill="#ffffff" fill-opacity="1"><g transform="translate(12.499553, 50.976675)"><g><path d="M 21.6875 0 L 16.15625 -8 L 10.046875 -8 L 10.046875 0 L 3.40625 0 L 3.40625 -28.703125 L 15.828125 -28.703125 C 18.367188 -28.703125 20.570312 -28.273438 22.4375 -27.421875 C 24.3125 -26.578125 25.753906 -25.375 26.765625 -23.8125 C 27.785156 -22.257812 28.296875 -20.414062 28.296875 -18.28125 C 28.296875 -16.15625 27.78125 -14.316406 26.75 -12.765625 C 25.726562 -11.222656 24.273438 -10.039062 22.390625 -9.21875 L 28.828125 0 Z M 21.5625 -18.28125 C 21.5625 -19.894531 21.039062 -21.128906 20 -21.984375 C 18.96875 -22.847656 17.453125 -23.28125 15.453125 -23.28125 L 10.046875 -23.28125 L 10.046875 -13.28125 L 15.453125 -13.28125 C 17.453125 -13.28125 18.96875 -13.71875 20 -14.59375 C 21.039062 -15.46875 21.5625 -16.695312 21.5625 -18.28125 Z M 21.5625 -18.28125 "/></g></g></g><g fill="#ffffff" fill-opacity="1"><g transform="translate(42.630579, 50.976675)"><g><path d="M 25.171875 -22.0625 L 25.171875 0 L 19.109375 0 L 19.109375 -2.625 C 18.253906 -1.664062 17.238281 -0.929688 16.0625 -0.421875 C 14.894531 0.078125 13.628906 0.328125 12.265625 0.328125 C 9.359375 0.328125 7.054688 -0.503906 5.359375 -2.171875 C 3.671875 -3.835938 2.828125 -6.3125 2.828125 -9.59375 L 2.828125 -22.0625 L 9.21875 -22.0625 L 9.21875 -10.53125 C 9.21875 -6.976562 10.707031 -5.203125 13.6875 -5.203125 C 15.21875 -5.203125 16.445312 -5.703125 17.375 -6.703125 C 18.3125 -7.703125 18.78125 -9.1875 18.78125 -11.15625 L 18.78125 -22.0625 Z M 25.171875 -22.0625 "/></g></g></g><g fill="#ffffff" fill-opacity="1"><g transform="translate(70.793869, 50.976675)"><g><path d="M 15.984375 -22.390625 C 18.035156 -22.390625 19.898438 -21.914062 21.578125 -20.96875 C 23.265625 -20.03125 24.585938 -18.707031 25.546875 -17 C 26.503906 -15.289062 26.984375 -13.300781 26.984375 -11.03125 C 26.984375 -8.757812 26.503906 -6.769531 25.546875 -5.0625 C 24.585938 -3.351562 23.265625 -2.023438 21.578125 -1.078125 C 19.898438 -0.140625 18.035156 0.328125 15.984375 0.328125 C 13.171875 0.328125 10.957031 -0.5625 9.34375 -2.34375 L 9.34375 7.953125 L 2.953125 7.953125 L 2.953125 -22.0625 L 9.0625 -22.0625 L 9.0625 -19.515625 C 10.644531 -21.429688 12.953125 -22.390625 15.984375 -22.390625 Z M 14.890625 -4.921875 C 16.523438 -4.921875 17.867188 -5.472656 18.921875 -6.578125 C 19.972656 -7.679688 20.5 -9.164062 20.5 -11.03125 C 20.5 -12.882812 19.972656 -14.363281 18.921875 -15.46875 C 17.867188 -16.582031 16.523438 -17.140625 14.890625 -17.140625 C 13.242188 -17.140625 11.894531 -16.582031 10.84375 -15.46875 C 9.789062 -14.363281 9.265625 -12.882812 9.265625 -11.03125 C 9.265625 -9.164062 9.789062 -7.679688 10.84375 -6.578125 C 11.894531 -5.472656 13.242188 -4.921875 14.890625 -4.921875 Z M 14.890625 -4.921875 "/></g></g></g><g fill="#f68712" fill-opacity="0.4"><g transform="translate(99.086308, 50.976675)"><g/></g></g><g fill="#f68712" fill-opacity="0.4"><g transform="translate(110.687776, 50.976675)"><g/></g></g><g fill="#f68712" fill-opacity="0.4"><g transform="translate(122.289244, 50.976675)"><g/></g></g><g fill="#ffffff" fill-opacity="1"><g transform="translate(99.086308, 50.976675)"><g/></g></g><g fill="#ffffff" fill-opacity="1"><g transform="translate(110.687776, 50.976675)"><g/></g></g><g fill="#ffffff" fill-opacity="1"><g transform="translate(122.289244, 50.976675)"><g/></g></g><g fill="#f68712" fill-opacity="0.4"><g transform="translate(133.900259, 50.976675)"><g><path d="M 10.375 0.328125 C 8.539062 0.328125 6.75 0.101562 5 -0.34375 C 3.25 -0.800781 1.851562 -1.367188 0.8125 -2.046875 L 2.953125 -6.640625 C 3.929688 -6.015625 5.117188 -5.503906 6.515625 -5.109375 C 7.910156 -4.710938 9.28125 -4.515625 10.625 -4.515625 C 13.320312 -4.515625 14.671875 -5.179688 14.671875 -6.515625 C 14.671875 -7.148438 14.300781 -7.601562 13.5625 -7.875 C 12.832031 -8.144531 11.703125 -8.375 10.171875 -8.5625 C 8.367188 -8.84375 6.878906 -9.160156 5.703125 -9.515625 C 4.523438 -9.867188 3.503906 -10.492188 2.640625 -11.390625 C 1.785156 -12.296875 1.359375 -13.582031 1.359375 -15.25 C 1.359375 -16.644531 1.757812 -17.878906 2.5625 -18.953125 C 3.363281 -20.035156 4.535156 -20.878906 6.078125 -21.484375 C 7.628906 -22.085938 9.457031 -22.390625 11.5625 -22.390625 C 13.125 -22.390625 14.675781 -22.21875 16.21875 -21.875 C 17.757812 -21.53125 19.035156 -21.054688 20.046875 -20.453125 L 17.921875 -15.90625 C 15.972656 -17 13.851562 -17.546875 11.5625 -17.546875 C 10.195312 -17.546875 9.171875 -17.351562 8.484375 -16.96875 C 7.804688 -16.59375 7.46875 -16.101562 7.46875 -15.5 C 7.46875 -14.8125 7.832031 -14.332031 8.5625 -14.0625 C 9.300781 -13.789062 10.476562 -13.53125 12.09375 -13.28125 C 13.894531 -12.976562 15.367188 -12.65625 16.515625 -12.3125 C 17.671875 -11.976562 18.671875 -11.359375 19.515625 -10.453125 C 20.359375 -9.554688 20.78125 -8.300781 20.78125 -6.6875 C 20.78125 -5.320312 20.367188 -4.101562 19.546875 -3.03125 C 18.734375 -1.96875 17.539062 -1.140625 15.96875 -0.546875 C 14.394531 0.0351562 12.53125 0.328125 10.375 0.328125 Z M 10.375 0.328125 "/></g></g></g><g fill="#f68712" fill-opacity="0.4"><g transform="translate(155.668391, 50.976675)"><g><path d="M 16.359375 -22.390625 C 19.085938 -22.390625 21.289062 -21.566406 22.96875 -19.921875 C 24.65625 -18.285156 25.5 -15.851562 25.5 -12.625 L 25.5 0 L 19.109375 0 L 19.109375 -11.640625 C 19.109375 -13.390625 18.722656 -14.691406 17.953125 -15.546875 C 17.191406 -16.410156 16.085938 -16.84375 14.640625 -16.84375 C 13.023438 -16.84375 11.738281 -16.34375 10.78125 -15.34375 C 9.820312 -14.351562 9.34375 -12.875 9.34375 -10.90625 L 9.34375 0 L 2.953125 0 L 2.953125 -30.421875 L 9.34375 -30.421875 L 9.34375 -19.765625 C 10.195312 -20.609375 11.222656 -21.253906 12.421875 -21.703125 C 13.628906 -22.160156 14.941406 -22.390625 16.359375 -22.390625 Z M 16.359375 -22.390625 "/></g></g></g><g fill="#f68712" fill-opacity="0.4"><g transform="translate(183.995658, 50.976675)"><g><path d="M 2.953125 -22.0625 L 9.34375 -22.0625 L 9.34375 0 L 2.953125 0 Z M 6.15625 -25.140625 C 4.976562 -25.140625 4.019531 -25.476562 3.28125 -26.15625 C 2.539062 -26.84375 2.171875 -27.691406 2.171875 -28.703125 C 2.171875 -29.710938 2.539062 -30.554688 3.28125 -31.234375 C 4.019531 -31.921875 4.976562 -32.265625 6.15625 -32.265625 C 7.332031 -32.265625 8.285156 -31.9375 9.015625 -31.28125 C 9.753906 -30.625 10.125 -29.804688 10.125 -28.828125 C 10.125 -27.753906 9.753906 -26.867188 9.015625 -26.171875 C 8.285156 -25.484375 7.332031 -25.140625 6.15625 -25.140625 Z M 6.15625 -25.140625 "/></g></g></g><g fill="#ffffff" fill-opacity="1"><g transform="translate(133.900259, 50.976675)"><g><path d="M 10.375 0.328125 C 8.539062 0.328125 6.75 0.101562 5 -0.34375 C 3.25 -0.800781 1.851562 -1.367188 0.8125 -2.046875 L 2.953125 -6.640625 C 3.929688 -6.015625 5.117188 -5.503906 6.515625 -5.109375 C 7.910156 -4.710938 9.28125 -4.515625 10.625 -4.515625 C 13.320312 -4.515625 14.671875 -5.179688 14.671875 -6.515625 C 14.671875 -7.148438 14.300781 -7.601562 13.5625 -7.875 C 12.832031 -8.144531 11.703125 -8.375 10.171875 -8.5625 C 8.367188 -8.84375 6.878906 -9.160156 5.703125 -9.515625 C 4.523438 -9.867188 3.503906 -10.492188 2.640625 -11.390625 C 1.785156 -12.296875 1.359375 -13.582031 1.359375 -15.25 C 1.359375 -16.644531 1.757812 -17.878906 2.5625 -18.953125 C 3.363281 -20.035156 4.535156 -20.878906 6.078125 -21.484375 C 7.628906 -22.085938 9.457031 -22.390625 11.5625 -22.390625 C 13.125 -22.390625 14.675781 -22.21875 16.21875 -21.875 C 17.757812 -21.53125 19.035156 -21.054688 20.046875 -20.453125 L 17.921875 -15.90625 C 15.972656 -17 13.851562 -17.546875 11.5625 -17.546875 C 10.195312 -17.546875 9.171875 -17.351562 8.484375 -16.96875 C 7.804688 -16.59375 7.46875 -16.101562 7.46875 -15.5 C 7.46875 -14.8125 7.832031 -14.332031 8.5625 -14.0625 C 9.300781 -13.789062 10.476562 -13.53125 12.09375 -13.28125 C 13.894531 -12.976562 15.367188 -12.65625 16.515625 -12.3125 C 17.671875 -11.976562 18.671875 -11.359375 19.515625 -10.453125 C 20.359375 -9.554688 20.78125 -8.300781 20.78125 -6.6875 C 20.78125 -5.320312 20.367188 -4.101562 19.546875 -3.03125 C 18.734375 -1.96875 17.539062 -1.140625 15.96875 -0.546875 C 14.394531 0.0351562 12.53125 0.328125 10.375 0.328125 Z M 10.375 0.328125 "/></g></g></g><g fill="#ffffff" fill-opacity="1"><g transform="translate(155.668391, 50.976675)"><g><path d="M 16.359375 -22.390625 C 19.085938 -22.390625 21.289062 -21.566406 22.96875 -19.921875 C 24.65625 -18.285156 25.5 -15.851562 25.5 -12.625 L 25.5 0 L 19.109375 0 L 19.109375 -11.640625 C 19.109375 -13.390625 18.722656 -14.691406 17.953125 -15.546875 C 17.191406 -16.410156 16.085938 -16.84375 14.640625 -16.84375 C 13.023438 -16.84375 11.738281 -16.34375 10.78125 -15.34375 C 9.820312 -14.351562 9.34375 -12.875 9.34375 -10.90625 L 9.34375 0 L 2.953125 0 L 2.953125 -30.421875 L 9.34375 -30.421875 L 9.34375 -19.765625 C 10.195312 -20.609375 11.222656 -21.253906 12.421875 -21.703125 C 13.628906 -22.160156 14.941406 -22.390625 16.359375 -22.390625 Z M 16.359375 -22.390625 "/></g></g></g><g fill="#ffffff" fill-opacity="1"><g transform="translate(183.995658, 50.976675)"><g><path d="M 2.953125 -22.0625 L 9.34375 -22.0625 L 9.34375 0 L 2.953125 0 Z M 6.15625 -25.140625 C 4.976562 -25.140625 4.019531 -25.476562 3.28125 -26.15625 C 2.539062 -26.84375 2.171875 -27.691406 2.171875 -28.703125 C 2.171875 -29.710938 2.539062 -30.554688 3.28125 -31.234375 C 4.019531 -31.921875 4.976562 -32.265625 6.15625 -32.265625 C 7.332031 -32.265625 8.285156 -31.9375 9.015625 -31.28125 C 9.753906 -30.625 10.125 -29.804688 10.125 -28.828125 C 10.125 -27.753906 9.753906 -26.867188 9.015625 -26.171875 C 8.285156 -25.484375 7.332031 -25.140625 6.15625 -25.140625 Z M 6.15625 -25.140625 "/></g></g></g><g fill="#80cc28" fill-opacity="0.4"><g transform="translate(122.712193, 63.469622)"><g><path d="M 5.859375 -3.578125 C 6.253906 -3.453125 6.5625 -3.242188 6.78125 -2.953125 C 7 -2.660156 7.109375 -2.300781 7.109375 -1.875 C 7.109375 -1.269531 6.875 -0.804688 6.40625 -0.484375 C 5.9375 -0.160156 5.253906 0 4.359375 0 L 0.8125 0 L 0.8125 -6.875 L 4.171875 -6.875 C 5.003906 -6.875 5.644531 -6.710938 6.09375 -6.390625 C 6.539062 -6.066406 6.765625 -5.628906 6.765625 -5.078125 C 6.765625 -4.742188 6.6875 -4.445312 6.53125 -4.1875 C 6.375 -3.925781 6.148438 -3.722656 5.859375 -3.578125 Z M 2.390625 -5.671875 L 2.390625 -4.046875 L 3.96875 -4.046875 C 4.363281 -4.046875 4.660156 -4.113281 4.859375 -4.25 C 5.066406 -4.394531 5.171875 -4.597656 5.171875 -4.859375 C 5.171875 -5.128906 5.066406 -5.332031 4.859375 -5.46875 C 4.660156 -5.601562 4.363281 -5.671875 3.96875 -5.671875 Z M 4.25 -1.203125 C 4.664062 -1.203125 4.976562 -1.269531 5.1875 -1.40625 C 5.40625 -1.539062 5.515625 -1.753906 5.515625 -2.046875 C 5.515625 -2.609375 5.09375 -2.890625 4.25 -2.890625 L 2.390625 -2.890625 L 2.390625 -1.203125 Z M 4.25 -1.203125 "/></g></g></g><g fill="#80cc28" fill-opacity="0.4"><g transform="translate(137.33291, 63.469622)"><g><path d="M 2.828125 -5.359375 C 3.648438 -5.359375 4.28125 -5.160156 4.71875 -4.765625 C 5.15625 -4.378906 5.375 -3.796875 5.375 -3.015625 L 5.375 0 L 3.9375 0 L 3.9375 -0.65625 C 3.65625 -0.164062 3.117188 0.078125 2.328125 0.078125 C 1.929688 0.078125 1.582031 0.0078125 1.28125 -0.125 C 0.976562 -0.257812 0.75 -0.445312 0.59375 -0.6875 C 0.4375 -0.9375 0.359375 -1.210938 0.359375 -1.515625 C 0.359375 -2.003906 0.539062 -2.390625 0.90625 -2.671875 C 1.28125 -2.953125 1.851562 -3.09375 2.625 -3.09375 L 3.84375 -3.09375 C 3.84375 -3.425781 3.738281 -3.679688 3.53125 -3.859375 C 3.332031 -4.046875 3.03125 -4.140625 2.625 -4.140625 C 2.34375 -4.140625 2.066406 -4.09375 1.796875 -4 C 1.523438 -3.914062 1.296875 -3.800781 1.109375 -3.65625 L 0.5625 -4.71875 C 0.84375 -4.925781 1.1875 -5.082031 1.59375 -5.1875 C 2 -5.300781 2.410156 -5.359375 2.828125 -5.359375 Z M 2.71875 -0.953125 C 2.976562 -0.953125 3.207031 -1.007812 3.40625 -1.125 C 3.613281 -1.25 3.757812 -1.429688 3.84375 -1.671875 L 3.84375 -2.203125 L 2.796875 -2.203125 C 2.171875 -2.203125 1.859375 -2 1.859375 -1.59375 C 1.859375 -1.394531 1.929688 -1.238281 2.078125 -1.125 C 2.234375 -1.007812 2.445312 -0.953125 2.71875 -0.953125 Z M 2.71875 -0.953125 "/></g></g></g><g fill="#80cc28" fill-opacity="0.4"><g transform="translate(150.503159, 63.469622)"><g><path d="M 3.921875 -5.359375 C 4.566406 -5.359375 5.09375 -5.160156 5.5 -4.765625 C 5.90625 -4.378906 6.109375 -3.796875 6.109375 -3.015625 L 6.109375 0 L 4.578125 0 L 4.578125 -2.78125 C 4.578125 -3.207031 4.484375 -3.519531 4.296875 -3.71875 C 4.109375 -3.925781 3.84375 -4.03125 3.5 -4.03125 C 3.113281 -4.03125 2.804688 -3.910156 2.578125 -3.671875 C 2.347656 -3.429688 2.234375 -3.078125 2.234375 -2.609375 L 2.234375 0 L 0.703125 0 L 0.703125 -5.28125 L 2.171875 -5.28125 L 2.171875 -4.65625 C 2.367188 -4.882812 2.617188 -5.054688 2.921875 -5.171875 C 3.222656 -5.296875 3.554688 -5.359375 3.921875 -5.359375 Z M 3.921875 -5.359375 "/></g></g></g><g fill="#80cc28" fill-opacity="0.4"><g transform="translate(164.398642, 63.469622)"><g><path d="M 6.15625 -5.28125 L 6.15625 -0.890625 C 6.15625 0.078125 5.898438 0.796875 5.390625 1.265625 C 4.890625 1.742188 4.15625 1.984375 3.1875 1.984375 C 2.675781 1.984375 2.191406 1.921875 1.734375 1.796875 C 1.273438 1.671875 0.894531 1.488281 0.59375 1.25 L 1.203125 0.15625 C 1.429688 0.34375 1.710938 0.488281 2.046875 0.59375 C 2.390625 0.695312 2.734375 0.75 3.078125 0.75 C 3.597656 0.75 3.984375 0.628906 4.234375 0.390625 C 4.492188 0.160156 4.625 -0.195312 4.625 -0.6875 L 4.625 -0.90625 C 4.21875 -0.46875 3.660156 -0.25 2.953125 -0.25 C 2.472656 -0.25 2.03125 -0.351562 1.625 -0.5625 C 1.21875 -0.78125 0.894531 -1.082031 0.65625 -1.46875 C 0.425781 -1.851562 0.3125 -2.300781 0.3125 -2.8125 C 0.3125 -3.3125 0.425781 -3.753906 0.65625 -4.140625 C 0.894531 -4.523438 1.21875 -4.820312 1.625 -5.03125 C 2.03125 -5.25 2.472656 -5.359375 2.953125 -5.359375 C 3.722656 -5.359375 4.304688 -5.109375 4.703125 -4.609375 L 4.703125 -5.28125 Z M 3.25 -1.515625 C 3.65625 -1.515625 3.988281 -1.632812 4.25 -1.875 C 4.507812 -2.113281 4.640625 -2.425781 4.640625 -2.8125 C 4.640625 -3.195312 4.507812 -3.507812 4.25 -3.75 C 3.988281 -3.988281 3.65625 -4.109375 3.25 -4.109375 C 2.851562 -4.109375 2.519531 -3.988281 2.25 -3.75 C 1.988281 -3.507812 1.859375 -3.195312 1.859375 -2.8125 C 1.859375 -2.425781 1.988281 -2.113281 2.25 -1.875 C 2.519531 -1.632812 2.851562 -1.515625 3.25 -1.515625 Z M 3.25 -1.515625 "/></g></g></g><g fill="#80cc28" fill-opacity="0.4"><g transform="translate(178.382331, 63.469622)"><g><path d="M 0.703125 -7.28125 L 2.234375 -7.28125 L 2.234375 0 L 0.703125 0 Z M 0.703125 -7.28125 "/></g></g></g><g fill="#80cc28" fill-opacity="0.4"><g transform="translate(188.455639, 63.469622)"><g><path d="M 2.828125 -5.359375 C 3.648438 -5.359375 4.28125 -5.160156 4.71875 -4.765625 C 5.15625 -4.378906 5.375 -3.796875 5.375 -3.015625 L 5.375 0 L 3.9375 0 L 3.9375 -0.65625 C 3.65625 -0.164062 3.117188 0.078125 2.328125 0.078125 C 1.929688 0.078125 1.582031 0.0078125 1.28125 -0.125 C 0.976562 -0.257812 0.75 -0.445312 0.59375 -0.6875 C 0.4375 -0.9375 0.359375 -1.210938 0.359375 -1.515625 C 0.359375 -2.003906 0.539062 -2.390625 0.90625 -2.671875 C 1.28125 -2.953125 1.851562 -3.09375 2.625 -3.09375 L 3.84375 -3.09375 C 3.84375 -3.425781 3.738281 -3.679688 3.53125 -3.859375 C 3.332031 -4.046875 3.03125 -4.140625 2.625 -4.140625 C 2.34375 -4.140625 2.066406 -4.09375 1.796875 -4 C 1.523438 -3.914062 1.296875 -3.800781 1.109375 -3.65625 L 0.5625 -4.71875 C 0.84375 -4.925781 1.1875 -5.082031 1.59375 -5.1875 C 2 -5.300781 2.410156 -5.359375 2.828125 -5.359375 Z M 2.71875 -0.953125 C 2.976562 -0.953125 3.207031 -1.007812 3.40625 -1.125 C 3.613281 -1.25 3.757812 -1.429688 3.84375 -1.671875 L 3.84375 -2.203125 L 2.796875 -2.203125 C 2.171875 -2.203125 1.859375 -2 1.859375 -1.59375 C 1.859375 -1.394531 1.929688 -1.238281 2.078125 -1.125 C 2.234375 -1.007812 2.445312 -0.953125 2.71875 -0.953125 Z M 2.71875 -0.953125 "/></g></g></g><g fill="#f68712" fill-opacity="1"><g transform="translate(122.712193, 63.469622)"><g><path d="M 5.859375 -3.578125 C 6.253906 -3.453125 6.5625 -3.242188 6.78125 -2.953125 C 7 -2.660156 7.109375 -2.300781 7.109375 -1.875 C 7.109375 -1.269531 6.875 -0.804688 6.40625 -0.484375 C 5.9375 -0.160156 5.253906 0 4.359375 0 L 0.8125 0 L 0.8125 -6.875 L 4.171875 -6.875 C 5.003906 -6.875 5.644531 -6.710938 6.09375 -6.390625 C 6.539062 -6.066406 6.765625 -5.628906 6.765625 -5.078125 C 6.765625 -4.742188 6.6875 -4.445312 6.53125 -4.1875 C 6.375 -3.925781 6.148438 -3.722656 5.859375 -3.578125 Z M 2.390625 -5.671875 L 2.390625 -4.046875 L 3.96875 -4.046875 C 4.363281 -4.046875 4.660156 -4.113281 4.859375 -4.25 C 5.066406 -4.394531 5.171875 -4.597656 5.171875 -4.859375 C 5.171875 -5.128906 5.066406 -5.332031 4.859375 -5.46875 C 4.660156 -5.601562 4.363281 -5.671875 3.96875 -5.671875 Z M 4.25 -1.203125 C 4.664062 -1.203125 4.976562 -1.269531 5.1875 -1.40625 C 5.40625 -1.539062 5.515625 -1.753906 5.515625 -2.046875 C 5.515625 -2.609375 5.09375 -2.890625 4.25 -2.890625 L 2.390625 -2.890625 L 2.390625 -1.203125 Z M 4.25 -1.203125 "/></g></g></g><g fill="#f68712" fill-opacity="1"><g transform="translate(137.33291, 63.469622)"><g><path d="M 2.828125 -5.359375 C 3.648438 -5.359375 4.28125 -5.160156 4.71875 -4.765625 C 5.15625 -4.378906 5.375 -3.796875 5.375 -3.015625 L 5.375 0 L 3.9375 0 L 3.9375 -0.65625 C 3.65625 -0.164062 3.117188 0.078125 2.328125 0.078125 C 1.929688 0.078125 1.582031 0.0078125 1.28125 -0.125 C 0.976562 -0.257812 0.75 -0.445312 0.59375 -0.6875 C 0.4375 -0.9375 0.359375 -1.210938 0.359375 -1.515625 C 0.359375 -2.003906 0.539062 -2.390625 0.90625 -2.671875 C 1.28125 -2.953125 1.851562 -3.09375 2.625 -3.09375 L 3.84375 -3.09375 C 3.84375 -3.425781 3.738281 -3.679688 3.53125 -3.859375 C 3.332031 -4.046875 3.03125 -4.140625 2.625 -4.140625 C 2.34375 -4.140625 2.066406 -4.09375 1.796875 -4 C 1.523438 -3.914062 1.296875 -3.800781 1.109375 -3.65625 L 0.5625 -4.71875 C 0.84375 -4.925781 1.1875 -5.082031 1.59375 -5.1875 C 2 -5.300781 2.410156 -5.359375 2.828125 -5.359375 Z M 2.71875 -0.953125 C 2.976562 -0.953125 3.207031 -1.007812 3.40625 -1.125 C 3.613281 -1.25 3.757812 -1.429688 3.84375 -1.671875 L 3.84375 -2.203125 L 2.796875 -2.203125 C 2.171875 -2.203125 1.859375 -2 1.859375 -1.59375 C 1.859375 -1.394531 1.929688 -1.238281 2.078125 -1.125 C 2.234375 -1.007812 2.445312 -0.953125 2.71875 -0.953125 Z M 2.71875 -0.953125 "/></g></g></g><g fill="#f68712" fill-opacity="1"><g transform="translate(150.503159, 63.469622)"><g><path d="M 3.921875 -5.359375 C 4.566406 -5.359375 5.09375 -5.160156 5.5 -4.765625 C 5.90625 -4.378906 6.109375 -3.796875 6.109375 -3.015625 L 6.109375 0 L 4.578125 0 L 4.578125 -2.78125 C 4.578125 -3.207031 4.484375 -3.519531 4.296875 -3.71875 C 4.109375 -3.925781 3.84375 -4.03125 3.5 -4.03125 C 3.113281 -4.03125 2.804688 -3.910156 2.578125 -3.671875 C 2.347656 -3.429688 2.234375 -3.078125 2.234375 -2.609375 L 2.234375 0 L 0.703125 0 L 0.703125 -5.28125 L 2.171875 -5.28125 L 2.171875 -4.65625 C 2.367188 -4.882812 2.617188 -5.054688 2.921875 -5.171875 C 3.222656 -5.296875 3.554688 -5.359375 3.921875 -5.359375 Z M 3.921875 -5.359375 "/></g></g></g><g fill="#f68712" fill-opacity="1"><g transform="translate(164.398642, 63.469622)"><g><path d="M 6.15625 -5.28125 L 6.15625 -0.890625 C 6.15625 0.078125 5.898438 0.796875 5.390625 1.265625 C 4.890625 1.742188 4.15625 1.984375 3.1875 1.984375 C 2.675781 1.984375 2.191406 1.921875 1.734375 1.796875 C 1.273438 1.671875 0.894531 1.488281 0.59375 1.25 L 1.203125 0.15625 C 1.429688 0.34375 1.710938 0.488281 2.046875 0.59375 C 2.390625 0.695312 2.734375 0.75 3.078125 0.75 C 3.597656 0.75 3.984375 0.628906 4.234375 0.390625 C 4.492188 0.160156 4.625 -0.195312 4.625 -0.6875 L 4.625 -0.90625 C 4.21875 -0.46875 3.660156 -0.25 2.953125 -0.25 C 2.472656 -0.25 2.03125 -0.351562 1.625 -0.5625 C 1.21875 -0.78125 0.894531 -1.082031 0.65625 -1.46875 C 0.425781 -1.851562 0.3125 -2.300781 0.3125 -2.8125 C 0.3125 -3.3125 0.425781 -3.753906 0.65625 -4.140625 C 0.894531 -4.523438 1.21875 -4.820312 1.625 -5.03125 C 2.03125 -5.25 2.472656 -5.359375 2.953125 -5.359375 C 3.722656 -5.359375 4.304688 -5.109375 4.703125 -4.609375 L 4.703125 -5.28125 Z M 3.25 -1.515625 C 3.65625 -1.515625 3.988281 -1.632812 4.25 -1.875 C 4.507812 -2.113281 4.640625 -2.425781 4.640625 -2.8125 C 4.640625 -3.195312 4.507812 -3.507812 4.25 -3.75 C 3.988281 -3.988281 3.65625 -4.109375 3.25 -4.109375 C 2.851562 -4.109375 2.519531 -3.988281 2.25 -3.75 C 1.988281 -3.507812 1.859375 -3.195312 1.859375 -2.8125 C 1.859375 -2.425781 1.988281 -2.113281 2.25 -1.875 C 2.519531 -1.632812 2.851562 -1.515625 3.25 -1.515625 Z M 3.25 -1.515625 "/></g></g></g><g fill="#f68712" fill-opacity="1"><g transform="translate(178.382331, 63.469622)"><g><path d="M 0.703125 -7.28125 L 2.234375 -7.28125 L 2.234375 0 L 0.703125 0 Z M 0.703125 -7.28125 "/></g></g></g><g fill="#f68712" fill-opacity="1"><g transform="translate(188.455639, 63.469622)"><g><path d="M 2.828125 -5.359375 C 3.648438 -5.359375 4.28125 -5.160156 4.71875 -4.765625 C 5.15625 -4.378906 5.375 -3.796875 5.375 -3.015625 L 5.375 0 L 3.9375 0 L 3.9375 -0.65625 C 3.65625 -0.164062 3.117188 0.078125 2.328125 0.078125 C 1.929688 0.078125 1.582031 0.0078125 1.28125 -0.125 C 0.976562 -0.257812 0.75 -0.445312 0.59375 -0.6875 C 0.4375 -0.9375 0.359375 -1.210938 0.359375 -1.515625 C 0.359375 -2.003906 0.539062 -2.390625 0.90625 -2.671875 C 1.28125 -2.953125 1.851562 -3.09375 2.625 -3.09375 L 3.84375 -3.09375 C 3.84375 -3.425781 3.738281 -3.679688 3.53125 -3.859375 C 3.332031 -4.046875 3.03125 -4.140625 2.625 -4.140625 C 2.34375 -4.140625 2.066406 -4.09375 1.796875 -4 C 1.523438 -3.914062 1.296875 -3.800781 1.109375 -3.65625 L 0.5625 -4.71875 C 0.84375 -4.925781 1.1875 -5.082031 1.59375 -5.1875 C 2 -5.300781 2.410156 -5.359375 2.828125 -5.359375 Z M 2.71875 -0.953125 C 2.976562 -0.953125 3.207031 -1.007812 3.40625 -1.125 C 3.613281 -1.25 3.757812 -1.429688 3.84375 -1.671875 L 3.84375 -2.203125 L 2.796875 -2.203125 C 2.171875 -2.203125 1.859375 -2 1.859375 -1.59375 C 1.859375 -1.394531 1.929688 -1.238281 2.078125 -1.125 C 2.234375 -1.007812 2.445312 -0.953125 2.71875 -0.953125 Z M 2.71875 -0.953125 "/></g></g></g><g clip-path="url(#67ab586a5f)"><path fill="#80cc28" d="M 97.667969 19.226562 C 97.667969 24.6875 100.132812 29.570312 104.011719 32.835938 C 100.894531 29.832031 98.953125 25.621094 98.953125 20.957031 C 98.953125 11.832031 106.378906 4.433594 115.535156 4.433594 C 124.691406 4.433594 132.117188 11.832031 132.117188 20.957031 C 132.117188 25.621094 130.175781 29.832031 127.058594 32.835938 C 130.9375 29.570312 133.402344 24.6875 133.402344 19.226562 C 133.402344 9.394531 125.402344 1.425781 115.535156 1.425781 C 105.667969 1.425781 97.667969 9.394531 97.667969 19.226562 " fill-opacity="1" fill-rule="nonzero"/></g><g clip-path="url(#a90a690068)"><path fill="#f68712" d="M 119.621094 36.160156 C 119.621094 35.390625 118.996094 34.769531 118.226562 34.769531 C 117.457031 34.769531 116.835938 35.390625 116.835938 36.160156 L 116.835938 44.6875 C 116.835938 45.457031 117.457031 46.078125 118.226562 46.078125 C 118.996094 46.078125 119.621094 45.457031 119.621094 44.6875 Z M 116.835938 49.921875 L 116.835938 54.648438 C 116.835938 55.519531 117.640625 56.171875 118.5 55.992188 C 118.507812 55.992188 118.519531 55.988281 118.527344 55.988281 C 119.164062 55.855469 119.621094 55.292969 119.621094 54.640625 L 119.621094 49.921875 C 119.621094 49.152344 118.996094 48.53125 118.226562 48.53125 C 117.457031 48.53125 116.835938 49.152344 116.835938 49.921875 Z M 111.703125 12.289062 C 113.140625 13.289062 115.191406 14.429688 115.179688 16.359375 C 115.171875 17.210938 115.496094 18.03125 116.230469 18.46875 L 117.039062 18.957031 L 116.3125 19.496094 L 115.796875 19.085938 C 115.132812 18.554688 114.25 18.53125 113.449219 18.832031 C 111.636719 19.507812 109.851562 17.980469 108.414062 16.980469 C 107.453125 16.3125 105.894531 14.933594 105.796875 14.371094 L 111.160156 18.101562 C 111.292969 18.199219 111.480469 18.164062 111.574219 18.027344 C 111.671875 17.894531 111.636719 17.707031 111.5 17.613281 L 106.035156 13.808594 C 105.90625 13.722656 105.855469 13.558594 105.910156 13.414062 L 105.914062 13.40625 C 105.992188 13.203125 106.242188 13.125 106.425781 13.25 L 111.894531 17.054688 C 112.027344 17.148438 112.214844 17.117188 112.308594 16.980469 C 112.40625 16.847656 112.371094 16.660156 112.234375 16.566406 L 106.683594 12.703125 C 106.53125 12.597656 106.492188 12.386719 106.597656 12.234375 L 106.601562 12.230469 L 106.601562 12.226562 C 106.710938 12.074219 106.921875 12.035156 107.074219 12.144531 L 112.628906 16.007812 C 112.761719 16.101562 112.949219 16.066406 113.042969 15.933594 C 113.140625 15.796875 113.105469 15.613281 112.96875 15.515625 L 107.5 11.714844 C 107.320312 11.585938 107.308594 11.328125 107.472656 11.183594 L 107.476562 11.175781 C 107.59375 11.074219 107.765625 11.066406 107.894531 11.15625 L 113.363281 14.957031 C 113.496094 15.054688 113.683594 15.019531 113.777344 14.882812 C 113.875 14.75 113.839844 14.5625 113.703125 14.46875 L 108.339844 10.738281 C 108.90625 10.636719 110.742188 11.621094 111.703125 12.289062 Z M 126.410156 14.023438 C 126.769531 14.582031 126.582031 15.328125 126 15.648438 L 118.464844 19.8125 L 126.109375 24.40625 C 126.683594 24.75 126.839844 25.5 126.460938 26.046875 C 126.078125 26.589844 125.316406 26.699219 124.796875 26.285156 L 117.421875 20.386719 L 115.910156 21.222656 C 115.160156 21.636719 114.734375 22.441406 114.78125 23.292969 C 114.832031 24.230469 114.308594 25.210938 112.835938 26.15625 C 110.570312 27.613281 106.917969 28.4375 106.058594 27.109375 C 105.199219 25.78125 107.457031 22.804688 109.722656 21.347656 C 111.195312 20.402344 112.308594 20.332031 113.140625 20.761719 C 113.902344 21.152344 114.8125 21.097656 115.5 20.589844 L 124.753906 13.726562 C 125.289062 13.328125 126.046875 13.464844 126.410156 14.023438 Z M 101.039062 20.878906 C 101.039062 23.859375 101.945312 26.625 103.496094 28.925781 L 103.496094 28.3125 C 103.496094 27.609375 104.050781 27.015625 104.753906 27 C 105.484375 26.976562 106.085938 27.5625 106.085938 28.289062 L 106.085938 32.15625 C 106.085938 32.921875 106.707031 33.542969 107.476562 33.542969 C 108.246094 33.542969 108.871094 32.921875 108.871094 32.15625 L 108.871094 30.445312 C 108.871094 29.742188 109.425781 29.148438 110.128906 29.128906 C 110.859375 29.109375 111.460938 29.695312 111.460938 30.417969 L 111.460938 38.195312 C 111.460938 38.960938 112.082031 39.585938 112.851562 39.585938 C 113.621094 39.585938 114.246094 38.960938 114.246094 38.195312 L 114.246094 27.074219 C 114.246094 26.371094 114.800781 25.777344 115.503906 25.757812 C 116.234375 25.738281 116.835938 26.324219 116.835938 27.046875 L 116.835938 30.925781 C 116.835938 31.695312 117.457031 32.316406 118.226562 32.316406 C 118.996094 32.316406 119.621094 31.695312 119.621094 30.925781 L 119.621094 26.703125 C 119.621094 26 120.175781 25.40625 120.878906 25.386719 C 121.609375 25.367188 122.210938 25.953125 122.210938 26.675781 L 122.210938 36.96875 C 122.210938 37.734375 122.832031 38.355469 123.601562 38.355469 C 124.371094 38.355469 124.996094 37.734375 124.996094 36.96875 L 124.996094 28.476562 C 124.996094 27.773438 125.550781 27.179688 126.253906 27.160156 C 126.984375 27.140625 127.585938 27.722656 127.585938 28.449219 L 127.585938 28.910156 C 129.128906 26.613281 130.03125 23.851562 130.03125 20.878906 C 130.03125 12.898438 123.539062 6.433594 115.535156 6.433594 C 107.527344 6.433594 101.039062 12.898438 101.039062 20.878906 Z M 122.210938 42.199219 L 122.210938 43.554688 C 122.210938 44.699219 123.53125 45.34375 124.4375 44.640625 C 124.445312 44.632812 124.453125 44.625 124.464844 44.621094 C 124.796875 44.359375 124.996094 43.957031 124.996094 43.535156 L 124.996094 42.199219 C 124.996094 41.433594 124.371094 40.8125 123.601562 40.8125 C 122.832031 40.8125 122.210938 41.433594 122.210938 42.199219 Z M 108.871094 42.867188 L 108.871094 37.386719 C 108.871094 36.621094 108.246094 35.996094 107.476562 35.996094 C 106.707031 35.996094 106.085938 36.621094 106.085938 37.386719 L 106.085938 42.867188 C 106.085938 43.632812 106.707031 44.253906 107.476562 44.253906 C 108.246094 44.253906 108.871094 43.632812 108.871094 42.867188 Z M 111.460938 57.433594 L 111.460938 61.726562 C 111.460938 62.378906 111.914062 62.941406 112.554688 63.074219 C 112.5625 63.074219 112.574219 63.078125 112.582031 63.078125 C 113.441406 63.253906 114.246094 62.605469 114.246094 61.734375 L 114.246094 57.433594 C 114.246094 56.667969 113.621094 56.042969 112.851562 56.042969 C 112.082031 56.042969 111.460938 56.667969 111.460938 57.433594 Z M 114.246094 52.203125 L 114.246094 43.425781 C 114.246094 42.660156 113.621094 42.039062 112.851562 42.039062 C 112.082031 42.039062 111.460938 42.660156 111.460938 43.425781 L 111.460938 52.203125 C 111.460938 52.96875 112.082031 53.589844 112.851562 53.589844 C 113.621094 53.589844 114.246094 52.96875 114.246094 52.203125 Z M 108.871094 49.1875 L 108.871094 48.097656 C 108.871094 47.332031 108.246094 46.710938 107.476562 46.710938 C 106.707031 46.710938 106.085938 47.332031 106.085938 48.097656 L 106.085938 49.167969 C 106.085938 49.59375 106.28125 49.992188 106.617188 50.253906 L 106.640625 50.273438 C 107.546875 50.976562 108.871094 50.335938 108.871094 49.1875 " fill-opacity="1" fill-rule="nonzero"/></g></svg>